<?xml version="1.0" encoding="UTF-8" standalone="no"?>
<!-- Created with Inkscape (http://www.inkscape.org/) -->

<svg
   width="210mm"
   height="297mm"
   viewBox="0 0 210 297"
   version="1.1"
   id="svg1"
   inkscape:version="1.3 (0e150ed6c4, 2023-07-21)"
   sodipodi:docname="drawing.svg"
   xmlns:inkscape="http://www.inkscape.org/namespaces/inkscape"
   xmlns:sodipodi="http://sodipodi.sourceforge.net/DTD/sodipodi-0.dtd"
   xmlns="http://www.w3.org/2000/svg"
   xmlns:svg="http://www.w3.org/2000/svg">
  <sodipodi:namedview
     id="namedview1"
     pagecolor="#ffffff"
     bordercolor="#000000"
     borderopacity="0.25"
     inkscape:showpageshadow="2"
     inkscape:pageopacity="0.0"
     inkscape:pagecheckerboard="0"
     inkscape:deskcolor="#d1d1d1"
     inkscape:document-units="mm"
     inkscape:zoom="1.4520903"
     inkscape:cx="272.36597"
     inkscape:cy="225.53693"
     inkscape:window-width="1920"
     inkscape:window-height="1019"
     inkscape:window-x="0"
     inkscape:window-y="735"
     inkscape:window-maximized="1"
     inkscape:current-layer="layer1" />
  <defs
     id="defs1" />
  <g
     inkscape:label="Layer 1"
     inkscape:groupmode="layer"
     id="layer1">
    <path
       style="fill:#000000;fill-opacity:1;stroke:#000000;stroke-width:0.313296;stroke-linejoin:bevel"
       d="m 101.54117,36.596917 1.32212,-0.06189 1.64018,5.879582 -5.772092,-0.196257 1.662932,-5.718074 z"
       id="path3"
       sodipodi:nodetypes="cccccc" />
    <path
       style="fill:#000000;fill-opacity:1;stroke:#000000;stroke-width:0.529167;stroke-linejoin:bevel"
       d="m 99.046462,38.523438 -0.676413,2.061455 -21.470328,-7.322776 0.333153,-1.752694 z"
       id="path6"
       sodipodi:nodetypes="ccccc" />
    <path
       style="fill:#000000;fill-opacity:1;stroke:#000000;stroke-width:0.595503;stroke-linejoin:bevel"
       d="m 76.033685,33.342774 -20.327669,4.738411 -0.975283,-0.336212 0.482964,-1.211491 21.161795,-5.026014 z"
       id="path7"
       sodipodi:nodetypes="cccccc" />
    <path
       style="fill:#000000;fill-opacity:1;stroke:#000000;stroke-width:0.675985;stroke-linejoin:bevel"
       d="m 98.672567,42.956597 1.492283,15.577407 2.6012,0.0074 1.80807,-15.442104 z"
       id="path8"
       sodipodi:nodetypes="ccccc" />
    <path
       style="fill:#000000;fill-opacity:1;stroke:#000000;stroke-width:0.529167;stroke-linejoin:bevel"
       d="m 99.941412,59.331669 -3.709304,5.454208 -4.581188,9.236361 0.187582,0.52557 0.677908,0.157711 5.420705,-8.928221 2.778685,-6.331747 z"
       id="path9"
       sodipodi:nodetypes="cccccccc" />
    <path
       style="fill:#000000;fill-opacity:1;stroke:#000000;stroke-width:0.529167;stroke-linejoin:bevel"
       d="m 101.39908,59.377224 0.54663,0.04555 0.15788,8.690464 1.50477,9.84926 -2.32355,1.815407 -2.254443,-1.99762 1.735603,-9.677839 z"
       id="path10"
       sodipodi:nodetypes="cccccccc" />
    <path
       style="fill:#000000;fill-opacity:1;stroke:#000000;stroke-width:0.529167;stroke-linejoin:bevel"
       d="m 56.664007,39.25867 0.865796,1.204117 -0.0045,3.118908 -5.219886,11.855974 -1.148665,0.375069 -0.187599,-0.982822 c 0,0 2.556947,-9.665023 2.724105,-9.988844 0.213802,-0.41418 2.800577,-5.304708 2.970791,-5.582402 z"
       id="path17"
       sodipodi:nodetypes="ccccccsc" />
    <path
       style="fill:#000000;fill-opacity:1;stroke:#000000;stroke-width:0.529167;stroke-linejoin:bevel"
       d="m 54.393288,38.980331 -4.80928,2.63008 -9.271982,8.289878 -0.257817,1.418945 1.15885,-0.407265 8.811366,-5.908692 4.952865,-5.328784 z"
       id="path18"
       sodipodi:nodetypes="cccccccc" />
    <path
       style="fill:#000000;fill-opacity:1;stroke:#000000;stroke-width:0.529167;stroke-linejoin:bevel"
       d="m 63.659125,37.785505 1.799311,-0.523847 0.273313,5.694017 -1.59109,12.980073 -1.589502,0.757753 -1.191074,-1.045357 1.410775,-12.46471 z"
       id="path19"
       sodipodi:nodetypes="cccccccc" />
    <path
       style="fill:#000000;fill-opacity:1;stroke:#000000;stroke-width:0.529167;stroke-linejoin:bevel"
       d="m 59.430059,38.497566 1.873166,-0.433413 0.273313,5.694017 -2.364135,12.980073 -1.911605,0.564491 -0.450238,-0.948726 1.765087,-12.368079 z"
       id="path19-5"
       sodipodi:nodetypes="cccccccc" />
    <path
       style="fill:#000000;fill-opacity:1;stroke:#000000;stroke-width:0.529167;stroke-linejoin:bevel"
       d="m 100.70933,35.978379 1.99331,-0.06442 3.43386,-6.851688 -0.68323,-4.190798 -0.90329,-0.566523 -1.24659,-3.621018 -1.24861,-4.218449 -0.24568,-0.01611 -1.36439,4.437491 -1.41561,3.412044 -1.092882,0.795742 -0.363469,3.785408 z"
       id="path20"
       sodipodi:nodetypes="ccccccccccccc" />
    <path
       style="fill:#000000;stroke:#000000;stroke-width:0.529;stroke-linejoin:bevel;stroke-dasharray:none"
       d="m 79.963834,35.207231 1.229908,0.455523 0.573312,3.684588 -4.126379,13.351915 -1.395905,0.718517 -0.653942,-1.174041 c 0,0 1.98219,-12.832755 2.073294,-13.197173 0.0911,-0.364416 2.299713,-3.839329 2.299712,-3.839329 z"
       id="path1"
       sodipodi:nodetypes="ccccccsc" />
    <path
       style="fill:#000000;stroke:#000000;stroke-width:0.430645;stroke-linejoin:bevel"
       d="m 85.358691,37.025051 -2.682201,4.395066 -3.123873,11.28536 0.659807,0.993881 1.568857,-0.189167 c 0,0 4.845126,-10.934788 4.915171,-11.091746 0.07004,-0.156957 0.22855,-4.834079 0.22855,-4.834079 z"
       id="path2"
       sodipodi:nodetypes="cccccscc" />
    <path
       style="fill:#000000;stroke:#000000;stroke-width:0.529167;stroke-linejoin:bevel"
       d="m 83.519028,54.066212 0.414547,1.218856 1.787587,0.209841 4.886081,-10.600864 1.057803,-5.607886 -1.80132,-0.680044 -2.901995,5.260994 z"
       id="path16"
       sodipodi:nodetypes="cccccccc" />
    <path
       style="fill:#000000;stroke:#000000;stroke-width:0.529167;stroke-linejoin:bevel"
       d="m 88.690555,55.634423 1.090962,1.251066 1.401064,-0.208892 5.047132,-9.924449 0.735701,-5.446835 -1.672479,-0.712254 -2.966416,4.649 z"
       id="path16-2"
       sodipodi:nodetypes="cccccccc" />
    <path
       style="fill:#000000;stroke:#000000;stroke-width:0.529167;stroke-linejoin:bevel"
       d="m 68.282667,36.487268 2.004296,-0.637728 0.592179,6.650613 -1.730984,12.800155 -0.956593,0.774384 -0.865492,-0.774386 c 0,0 -0.22776,-11.66135 -0.22776,-11.889111 0,-0.227759 1.184354,-6.923927 1.184354,-6.923927 z"
       id="path21"
       sodipodi:nodetypes="ccccccsc" />
    <path
       style="fill:#000000;stroke:#000000;stroke-width:0.529167;stroke-linejoin:bevel"
       d="m 72.063496,35.43957 2.095401,-0.523849 1.002146,4.805752 -1.002147,12.663496 -0.865491,1.594324 -1.45767,-0.911042 -0.0911,-12.29908 z"
       id="path22"
       sodipodi:nodetypes="cccccccc" />
    <path
       style="fill:#000000;stroke:#000000;stroke-width:0.529;stroke-linejoin:bevel;stroke-dasharray:none"
       d="m 53.330272,38.245546 -4.251753,2.125877 -15.46091,2.80229 -0.837466,-0.515365 0.805257,-0.708626 14.977755,-3.639754 5.185847,-0.837467 z"
       id="path23"
       sodipodi:nodetypes="cccccccc" />
    <path
       style="fill:#000000;stroke:#000000;stroke-width:0.529;stroke-linejoin:bevel;stroke-dasharray:none"
       d="m 52.749386,36.920016 -4.350229,0.706057 -13.483436,-0.956594 -0.637731,-0.614955 13.733973,0.660506 5.602915,-0.273312 -0.159433,0.364416 z"
       id="path24" />
    <path
       style="fill:#000000;fill-opacity:1;stroke:#000000;stroke-width:0.529167;stroke-linejoin:bevel"
       d="m 104.0776,38.2789 0.67641,2.061455 21.47033,-7.322776 -0.33316,-1.752694 z"
       id="path6-0"
       sodipodi:nodetypes="ccccc" />
    <path
       style="fill:#000000;fill-opacity:1;stroke:#000000;stroke-width:0.595503;stroke-linejoin:bevel"
       d="m 127.09037,33.098236 20.32767,4.738411 0.97528,-0.336212 -0.48296,-1.211491 -21.16179,-5.026014 z"
       id="path7-6"
       sodipodi:nodetypes="cccccc" />
    <path
       style="fill:#000000;fill-opacity:1;stroke:#000000;stroke-width:0.529167;stroke-linejoin:bevel"
       d="m 146.46005,39.014132 -0.8658,1.204117 0.004,3.118908 5.21989,11.855974 1.14867,0.375069 0.18759,-0.982822 c 0,0 -2.55694,-9.665023 -2.7241,-9.988844 -0.2138,-0.41418 -2.80058,-5.304708 -2.97079,-5.582402 z"
       id="path17-2"
       sodipodi:nodetypes="ccccccsc" />
    <path
       style="fill:#000000;fill-opacity:1;stroke:#000000;stroke-width:0.529167;stroke-linejoin:bevel"
       d="m 148.73077,38.735793 4.80928,2.63008 9.27198,8.289878 0.25782,1.418945 -1.15885,-0.407265 -8.81137,-5.908692 -4.95286,-5.328784 z"
       id="path18-6"
       sodipodi:nodetypes="cccccccc" />
    <path
       style="fill:#000000;fill-opacity:1;stroke:#000000;stroke-width:0.529167;stroke-linejoin:bevel"
       d="m 139.46493,37.540967 -1.79931,-0.523847 -0.27331,5.694017 1.59109,12.980073 1.5895,0.757753 1.19107,-1.045357 -1.41077,-12.46471 z"
       id="path19-1"
       sodipodi:nodetypes="cccccccc" />
    <path
       style="fill:#000000;fill-opacity:1;stroke:#000000;stroke-width:0.529167;stroke-linejoin:bevel"
       d="m 143.694,38.253028 -1.87317,-0.433413 -0.27331,5.694017 2.36413,12.980073 1.91161,0.564491 0.45024,-0.948726 -1.76509,-12.368079 z"
       id="path19-5-8"
       sodipodi:nodetypes="cccccccc" />
    <path
       style="fill:#000000;stroke:#000000;stroke-width:0.529;stroke-linejoin:bevel;stroke-dasharray:none"
       d="m 123.16022,34.962693 -1.2299,0.455523 -0.57332,3.684588 4.12638,13.351915 1.39591,0.718517 0.65394,-1.174041 c 0,0 -1.98219,-12.832755 -2.07329,-13.197173 -0.0911,-0.364416 -2.29972,-3.839329 -2.29972,-3.839329 z"
       id="path1-7"
       sodipodi:nodetypes="ccccccsc" />
    <path
       style="fill:#000000;stroke:#000000;stroke-width:0.430645;stroke-linejoin:bevel"
       d="m 117.76537,36.780513 2.6822,4.395066 3.12387,11.28536 -0.65981,0.993881 -1.56885,-0.189167 c 0,0 -4.84513,-10.934788 -4.91517,-11.091746 -0.07,-0.156957 -0.22855,-4.834079 -0.22855,-4.834079 z"
       id="path2-9"
       sodipodi:nodetypes="cccccscc" />
    <path
       style="fill:#000000;stroke:#000000;stroke-width:0.529167;stroke-linejoin:bevel"
       d="m 119.60503,53.821674 -0.41455,1.218856 -1.78758,0.209841 -4.88609,-10.600864 -1.0578,-5.607886 1.80132,-0.680044 2.902,5.260994 z"
       id="path16-20"
       sodipodi:nodetypes="cccccccc" />
    <path
       style="fill:#000000;stroke:#000000;stroke-width:0.529167;stroke-linejoin:bevel"
       d="m 114.4335,55.389885 -1.09096,1.251066 -1.40106,-0.208892 -5.04714,-9.924449 -0.7357,-5.446835 1.67248,-0.712254 2.96642,4.649 z"
       id="path16-2-2"
       sodipodi:nodetypes="cccccccc" />
    <path
       style="fill:#000000;stroke:#000000;stroke-width:0.529167;stroke-linejoin:bevel"
       d="m 134.84139,36.24273 -2.0043,-0.637728 -0.59217,6.650613 1.73098,12.800155 0.95659,0.774384 0.86549,-0.774386 c 0,0 0.22776,-11.66135 0.22776,-11.889111 0,-0.227759 -1.18435,-6.923927 -1.18435,-6.923927 z"
       id="path21-3"
       sodipodi:nodetypes="ccccccsc" />
    <path
       style="fill:#000000;stroke:#000000;stroke-width:0.529167;stroke-linejoin:bevel"
       d="m 131.06056,35.195032 -2.0954,-0.523849 -1.00215,4.805752 1.00215,12.663496 0.86549,1.594324 1.45767,-0.911042 0.0911,-12.29908 z"
       id="path22-7"
       sodipodi:nodetypes="cccccccc" />
    <path
       style="fill:#000000;stroke:#000000;stroke-width:0.529;stroke-linejoin:bevel;stroke-dasharray:none"
       d="m 149.79379,38.001008 4.25175,2.125877 15.46091,2.80229 0.83746,-0.515365 -0.80525,-0.708626 -14.97776,-3.639754 -5.18584,-0.837467 z"
       id="path23-5"
       sodipodi:nodetypes="cccccccc" />
    <path
       style="fill:#000000;stroke:#000000;stroke-width:0.529;stroke-linejoin:bevel;stroke-dasharray:none"
       d="m 150.37467,36.675478 4.35023,0.706057 13.48344,-0.956594 0.63773,-0.614955 -13.73398,0.660506 -5.60291,-0.273312 0.15943,0.364416 z"
       id="path24-9" />
    <path
       style="fill:#000000;stroke:#000000;stroke-width:0.529;stroke-linejoin:bevel;stroke-dasharray:none"
       d="m 100.04033,63.004621 -1.431319,3.11432 -1.343789,1.913191 -2.243444,8.336042 0.136657,0.865491 0.728835,-0.182208 4.099695,-9.087653 0.386715,-4.944697 z"
       id="path25"
       sodipodi:nodetypes="ccccccccc" />
    <path
       style="fill:#000000;fill-opacity:1;stroke:#000000;stroke-width:0.529167;stroke-linejoin:bevel"
       d="m 103.13591,59.205761 3.95984,5.476984 4.58119,9.236361 -0.18758,0.52557 -0.95123,-0.138378 -5.07905,-8.381595 -2.80147,-6.354523 z"
       id="path9-7"
       sodipodi:nodetypes="cccccccc" />
    <path
       style="fill:#000000;stroke:#000000;stroke-width:0.529;stroke-linejoin:bevel;stroke-dasharray:none"
       d="m 103.28753,62.901489 1.47687,3.296529 1.18436,1.844864 2.35732,8.22216 -0.13665,0.865491 -0.59218,0.637731 -4.60077,-9.657055 -0.13618,-5.081354 z"
       id="path25-0"
       sodipodi:nodetypes="ccccccccc" />
  </g>
</svg>
